<svg xmlns="http://www.w3.org/2000/svg" xmlns:xlink="http://www.w3.org/1999/xlink" width="64" zoomAndPan="magnify" viewBox="0 0 48 48" height="64" preserveAspectRatio="xMidYMid meet" version="1.0"><defs><clipPath id="67913d674a"><path d="M 0.488281 0 L 47.507812 0 L 47.507812 47.019531 L 0.488281 47.019531 Z M 0.488281 0 " clip-rule="nonzero"/></clipPath><clipPath id="dd52437af1"><path d="M 20.4375 7.347656 L 27.5625 7.347656 L 27.5625 14.472656 L 20.4375 14.472656 Z M 20.4375 7.347656 " clip-rule="nonzero"/></clipPath><clipPath id="04337c97f4"><path d="M 24 7.347656 C 22.03125 7.347656 20.4375 8.941406 20.4375 10.910156 C 20.4375 12.878906 22.03125 14.472656 24 14.472656 C 25.96875 14.472656 27.5625 12.878906 27.5625 10.910156 C 27.5625 8.941406 25.96875 7.347656 24 7.347656 Z M 24 7.347656 " clip-rule="nonzero"/></clipPath><clipPath id="21092a7900"><path d="M 21.527344 18.515625 L 26.472656 18.515625 L 26.472656 40.566406 L 21.527344 40.566406 Z M 21.527344 18.515625 " clip-rule="nonzero"/></clipPath><clipPath id="a9dd456b14"><path d="M 22.261719 18.515625 L 25.738281 18.515625 C 25.933594 18.515625 26.121094 18.589844 26.257812 18.730469 C 26.398438 18.867188 26.472656 19.054688 26.472656 19.25 L 26.472656 39.820312 C 26.472656 40.015625 26.398438 40.203125 26.257812 40.339844 C 26.121094 40.476562 25.933594 40.554688 25.738281 40.554688 L 22.261719 40.554688 C 22.066406 40.554688 21.878906 40.476562 21.742188 40.339844 C 21.601562 40.203125 21.527344 40.015625 21.527344 39.820312 L 21.527344 19.25 C 21.527344 19.054688 21.601562 18.867188 21.742188 18.730469 C 21.878906 18.589844 22.066406 18.515625 22.261719 18.515625 Z M 22.261719 18.515625 " clip-rule="nonzero"/></clipPath></defs><g clip-path="url(#67913d674a)"><path fill="#ffffff" d="M 0.488281 0 L 47.511719 0 L 47.511719 47.019531 L 0.488281 47.019531 Z M 0.488281 0 " fill-opacity="1" fill-rule="nonzero"/><path fill="#ffffff" d="M 0.488281 0 L 47.511719 0 L 47.511719 47.019531 L 0.488281 47.019531 Z M 0.488281 0 " fill-opacity="1" fill-rule="nonzero"/></g><g clip-path="url(#dd52437af1)"><g clip-path="url(#04337c97f4)"><path fill="#4285f4" d="M 20.4375 7.347656 L 27.5625 7.347656 L 27.5625 14.472656 L 20.4375 14.472656 Z M 20.4375 7.347656 " fill-opacity="1" fill-rule="nonzero"/></g></g><g clip-path="url(#21092a7900)"><g clip-path="url(#a9dd456b14)"><path fill="#1e1e18" d="M 21.527344 18.515625 L 26.472656 18.515625 L 26.472656 40.546875 L 21.527344 40.546875 Z M 21.527344 18.515625 " fill-opacity="1" fill-rule="nonzero"/></g></g></svg>