<svg xmlns="http://www.w3.org/2000/svg" xmlns:xlink="http://www.w3.org/1999/xlink" width="500" zoomAndPan="magnify" viewBox="0 0 375 374.999991" height="500" preserveAspectRatio="xMidYMid meet" version="1.0"><defs><g/></defs><g fill="#171710" fill-opacity="1"><g transform="translate(40.359376, 215.249986)"><g><path d="M 6.5625 0 L 6.5625 -52.109375 L 17.609375 -52.109375 L 17.609375 0 Z M 6.5625 0 "/></g></g></g><g fill="#171710" fill-opacity="1"><g transform="translate(64.525074, 215.249986)"><g><path d="M 28.34375 -40.59375 C 32.59375 -40.59375 36.007812 -39.4375 38.59375 -37.125 C 41.1875 -34.8125 42.484375 -31.097656 42.484375 -25.984375 L 42.484375 0 L 31.609375 0 L 31.609375 -23.28125 C 31.609375 -26.125 31.09375 -28.269531 30.0625 -29.71875 C 29.03125 -31.175781 27.410156 -31.90625 25.203125 -31.90625 C 21.867188 -31.90625 19.597656 -30.773438 18.390625 -28.515625 C 17.179688 -26.253906 16.578125 -23 16.578125 -18.75 L 16.578125 0 L 5.703125 0 L 5.703125 -39.84375 L 14.015625 -39.84375 L 15.46875 -34.75 L 16.078125 -34.75 C 16.929688 -36.132812 17.992188 -37.253906 19.265625 -38.109375 C 20.535156 -38.960938 21.945312 -39.585938 23.5 -39.984375 C 25.0625 -40.390625 26.675781 -40.59375 28.34375 -40.59375 Z M 28.34375 -40.59375 "/></g></g></g><g fill="#171710" fill-opacity="1"><g transform="translate(112.500042, 215.249986)"><g><path d="M 28.34375 -40.59375 C 32.59375 -40.59375 36.007812 -39.4375 38.59375 -37.125 C 41.1875 -34.8125 42.484375 -31.097656 42.484375 -25.984375 L 42.484375 0 L 31.609375 0 L 31.609375 -23.28125 C 31.609375 -26.125 31.09375 -28.269531 30.0625 -29.71875 C 29.03125 -31.175781 27.410156 -31.90625 25.203125 -31.90625 C 21.867188 -31.90625 19.597656 -30.773438 18.390625 -28.515625 C 17.179688 -26.253906 16.578125 -23 16.578125 -18.75 L 16.578125 0 L 5.703125 0 L 5.703125 -39.84375 L 14.015625 -39.84375 L 15.46875 -34.75 L 16.078125 -34.75 C 16.929688 -36.132812 17.992188 -37.253906 19.265625 -38.109375 C 20.535156 -38.960938 21.945312 -39.585938 23.5 -39.984375 C 25.0625 -40.390625 26.675781 -40.59375 28.34375 -40.59375 Z M 28.34375 -40.59375 "/></g></g></g><g fill="#171710" fill-opacity="1"><g transform="translate(160.475011, 215.249986)"><g><path d="M 41.921875 -20 C 41.921875 -16.664062 41.472656 -13.71875 40.578125 -11.15625 C 39.691406 -8.59375 38.394531 -6.425781 36.6875 -4.65625 C 34.988281 -2.882812 32.945312 -1.546875 30.5625 -0.640625 C 28.175781 0.265625 25.484375 0.71875 22.484375 0.71875 C 19.679688 0.71875 17.109375 0.265625 14.765625 -0.640625 C 12.429688 -1.546875 10.398438 -2.882812 8.671875 -4.65625 C 6.953125 -6.425781 5.625 -8.59375 4.6875 -11.15625 C 3.75 -13.71875 3.28125 -16.664062 3.28125 -20 C 3.28125 -24.414062 4.0625 -28.15625 5.625 -31.21875 C 7.195312 -34.289062 9.429688 -36.617188 12.328125 -38.203125 C 15.234375 -39.796875 18.691406 -40.59375 22.703125 -40.59375 C 26.429688 -40.59375 29.738281 -39.796875 32.625 -38.203125 C 35.519531 -36.617188 37.789062 -34.289062 39.4375 -31.21875 C 41.09375 -28.15625 41.921875 -24.414062 41.921875 -20 Z M 14.359375 -20 C 14.359375 -17.382812 14.644531 -15.1875 15.21875 -13.40625 C 15.789062 -11.625 16.679688 -10.28125 17.890625 -9.375 C 19.109375 -8.46875 20.691406 -8.015625 22.640625 -8.015625 C 24.554688 -8.015625 26.113281 -8.46875 27.3125 -9.375 C 28.519531 -10.28125 29.398438 -11.625 29.953125 -13.40625 C 30.515625 -15.1875 30.796875 -17.382812 30.796875 -20 C 30.796875 -22.632812 30.515625 -24.820312 29.953125 -26.5625 C 29.398438 -28.3125 28.515625 -29.625 27.296875 -30.5 C 26.085938 -31.382812 24.507812 -31.828125 22.5625 -31.828125 C 19.6875 -31.828125 17.597656 -30.835938 16.296875 -28.859375 C 15.003906 -26.890625 14.359375 -23.9375 14.359375 -20 Z M 14.359375 -20 "/></g></g></g><g fill="#4285f4" fill-opacity="1"><g transform="translate(205.675775, 215.249986)"><g><path d="M 27.734375 -31.6875 L 18.328125 -31.6875 L 18.328125 0 L 7.453125 0 L 7.453125 -31.6875 L 1.46875 -31.6875 L 1.46875 -36.921875 L 7.453125 -39.84375 L 7.453125 -42.78125 C 7.453125 -46.175781 8.023438 -48.816406 9.171875 -50.703125 C 10.328125 -52.585938 11.957031 -53.914062 14.0625 -54.6875 C 16.164062 -55.46875 18.65625 -55.859375 21.53125 -55.859375 C 23.644531 -55.859375 25.566406 -55.6875 27.296875 -55.34375 C 29.035156 -55 30.453125 -54.613281 31.546875 -54.1875 L 28.765625 -46.203125 C 27.929688 -46.460938 27.023438 -46.695312 26.046875 -46.90625 C 25.078125 -47.125 23.960938 -47.234375 22.703125 -47.234375 C 21.179688 -47.234375 20.070312 -46.773438 19.375 -45.859375 C 18.675781 -44.941406 18.328125 -43.769531 18.328125 -42.34375 L 18.328125 -39.84375 L 27.734375 -39.84375 Z M 27.734375 -31.6875 "/></g></g></g><g fill="#4285f4" fill-opacity="1"><g transform="translate(233.94038, 215.249986)"><g><path d="M 27.953125 -40.59375 C 28.492188 -40.59375 29.125 -40.5625 29.84375 -40.5 C 30.570312 -40.445312 31.160156 -40.375 31.609375 -40.28125 L 30.796875 -30.078125 C 30.441406 -30.203125 29.9375 -30.289062 29.28125 -30.34375 C 28.625 -30.40625 28.0625 -30.4375 27.59375 -30.4375 C 26.1875 -30.4375 24.820312 -30.257812 23.5 -29.90625 C 22.1875 -29.550781 21.003906 -28.972656 19.953125 -28.171875 C 18.910156 -27.378906 18.085938 -26.332031 17.484375 -25.03125 C 16.878906 -23.738281 16.578125 -22.15625 16.578125 -20.28125 L 16.578125 0 L 5.703125 0 L 5.703125 -39.84375 L 13.9375 -39.84375 L 15.546875 -33.15625 L 16.078125 -33.15625 C 16.859375 -34.507812 17.835938 -35.75 19.015625 -36.875 C 20.191406 -38 21.535156 -38.898438 23.046875 -39.578125 C 24.554688 -40.253906 26.191406 -40.59375 27.953125 -40.59375 Z M 27.953125 -40.59375 "/></g></g></g><g fill="#4285f4" fill-opacity="1"><g transform="translate(267.088018, 215.249986)"><g><path d="M 16.578125 -39.84375 L 16.578125 0 L 5.703125 0 L 5.703125 -39.84375 Z M 11.15625 -55.46875 C 12.769531 -55.46875 14.160156 -55.09375 15.328125 -54.34375 C 16.492188 -53.59375 17.078125 -52.195312 17.078125 -50.15625 C 17.078125 -48.132812 16.492188 -46.738281 15.328125 -45.96875 C 14.160156 -45.195312 12.769531 -44.8125 11.15625 -44.8125 C 9.519531 -44.8125 8.125 -45.195312 6.96875 -45.96875 C 5.8125 -46.738281 5.234375 -48.132812 5.234375 -50.15625 C 5.234375 -52.195312 5.8125 -53.59375 6.96875 -54.34375 C 8.125 -55.09375 9.519531 -55.46875 11.15625 -55.46875 Z M 11.15625 -55.46875 "/></g></g></g><g fill="#4285f4" fill-opacity="1"><g transform="translate(289.364662, 215.249986)"><g><path d="M 16.578125 -55.46875 L 16.578125 -30.65625 C 16.578125 -29.15625 16.515625 -27.65625 16.390625 -26.15625 C 16.273438 -24.664062 16.144531 -23.171875 16 -21.671875 L 16.140625 -21.671875 C 16.878906 -22.710938 17.632812 -23.742188 18.40625 -24.765625 C 19.175781 -25.796875 20.003906 -26.785156 20.890625 -27.734375 L 32.046875 -39.84375 L 44.3125 -39.84375 L 28.484375 -22.5625 L 45.265625 0 L 32.71875 0 L 21.25 -16.140625 L 16.578125 -12.40625 L 16.578125 0 L 5.703125 0 L 5.703125 -55.46875 Z M 16.578125 -55.46875 "/></g></g></g></svg>